<?xml version="1.0" encoding="UTF-8" standalone="no"?>
<svg
   width="64"
   height="64"
   version="1.1"
   viewBox="0 0 64 64"
   id="svg24"
   sodipodi:docname="logo.svg"
   inkscape:version="1.2.2 (b0a8486541, 2022-12-01)"
   xmlns:inkscape="http://www.inkscape.org/namespaces/inkscape"
   xmlns:sodipodi="http://sodipodi.sourceforge.net/DTD/sodipodi-0.dtd"
   xmlns="http://www.w3.org/2000/svg"
   xmlns:svg="http://www.w3.org/2000/svg">
  <defs
     id="defs28" />
  <sodipodi:namedview
     id="namedview26"
     pagecolor="#ffffff"
     bordercolor="#666666"
     borderopacity="1.0"
     inkscape:pageshadow="2"
     inkscape:pageopacity="0.0"
     inkscape:pagecheckerboard="0"
     showgrid="false"
     inkscape:zoom="5.578125"
     inkscape:cx="30.565826"
     inkscape:cy="11.204482"
     inkscape:window-width="1920"
     inkscape:window-height="1011"
     inkscape:window-x="0"
     inkscape:window-y="0"
     inkscape:window-maximized="1"
     inkscape:current-layer="svg24"
     inkscape:showpageshadow="2"
     inkscape:deskcolor="#d1d1d1" />
  <circle
     cx="32"
     cy="33"
     r="28"
     style="opacity:0.2"
     id="circle2" />
  <circle
     style="fill:#35bf5c;fill-opacity:1"
     cx="32"
     cy="32"
     id="circle4"
     r="28" />
  <path
     id="circle4-35"
     style="fill:#550044;fill-opacity:1"
     d="M 31.925781 4.1347656 A 28 28 0 0 0 29.753906 4.2910156 A 28 28 0 0 0 29.205078 9.4902344 A 28 28 0 0 0 57.205078 37.490234 A 28 28 0 0 0 59.376953 37.333984 A 28 28 0 0 0 59.925781 32.134766 A 28 28 0 0 0 31.925781 4.1347656 z " />
  <path
     style="opacity:0.1;fill:#ffffff"
     d="M 32 4 A 28 28 0 0 0 4 32 A 28 28 0 0 0 4.0175781 32.492188 A 28 28 0 0 1 32 5 A 28 28 0 0 1 59.974609 32.492188 A 28 28 0 0 0 60 32 A 28 28 0 0 0 32 4 z"
     id="path22" />
  <path
     d="m 20.064888,17.852339 c -1.493318,0 -2.695472,1.20217 -2.695472,2.695472 v 24.259553 c 0,1.493318 1.202169,2.695472 2.695472,2.695472 h 5.390945 V 25.939943 h 10.78174 v -8.08627 z m 18.867712,0 v 29.649905 h 5.390955 c 1.493316,0 2.695466,-1.202171 2.695466,-2.695474 V 20.547219 c 0,-1.493318 -1.202173,-2.695473 -2.695466,-2.695473 z M 28.150864,28.634082 V 47.5018 h 8.086271 V 28.634082 Z"
     fill="#69f0ae"
     fill-rule="evenodd"
     stroke-linecap="round"
     stroke-linejoin="round"
     stroke-width="1.34772"
     style="fill:#f9f9f9;paint-order:stroke fill markers"
     id="path6" />
</svg>
