<svg xmlns="http://www.w3.org/2000/svg" xmlns:svg="http://www.w3.org/2000/svg" id="svg24" width="64" height="64" version="1.1" viewBox="0 0 64 64"><circle cx="32" cy="33" r="28" style="opacity:.2" id="circle2"/><circle style="fill:#35bf5c;fill-opacity:1" id="circle4" cx="32" cy="32" r="28"/><path id="circle4-35" style="fill:#504;fill-opacity:1" d="M 31.925781 4.1347656 A 28 28 0 0 0 29.753906 4.2910156 A 28 28 0 0 0 29.205078 9.4902344 A 28 28 0 0 0 57.205078 37.490234 A 28 28 0 0 0 59.376953 37.333984 A 28 28 0 0 0 59.925781 32.134766 A 28 28 0 0 0 31.925781 4.1347656 z"/><path style="opacity:.1;fill:#fff" id="path22" d="M 32 4 A 28 28 0 0 0 4 32 A 28 28 0 0 0 4.0175781 32.492188 A 28 28 0 0 1 32 5 A 28 28 0 0 1 59.974609 32.492188 A 28 28 0 0 0 60 32 A 28 28 0 0 0 32 4 z"/><path id="path6" fill="#69f0ae" fill-rule="evenodd" stroke-linecap="round" stroke-linejoin="round" stroke-width="1.348" d="m 20.064888,17.852339 c -1.493318,0 -2.695472,1.20217 -2.695472,2.695472 v 24.259553 c 0,1.493318 1.202169,2.695472 2.695472,2.695472 h 5.390945 V 25.939943 h 10.78174 v -8.08627 z m 18.867712,0 v 29.649905 h 5.390955 c 1.493316,0 2.695466,-1.202171 2.695466,-2.695474 V 20.547219 c 0,-1.493318 -1.202173,-2.695473 -2.695466,-2.695473 z M 28.150864,28.634082 V 47.5018 h 8.086271 V 28.634082 Z" style="fill:#f9f9f9;paint-order:stroke fill markers"/></svg>