<?xml version="1.0" encoding="UTF-8" standalone="no"?>
<svg
   width="64"
   height="64"
   version="1.1"
   viewBox="0 0 64 64"
   id="svg24"
   sodipodi:docname="logo.svg"
   inkscape:version="1.1.1 (3bf5ae0d25, 2021-09-20, custom)"
   xmlns:inkscape="http://www.inkscape.org/namespaces/inkscape"
   xmlns:sodipodi="http://sodipodi.sourceforge.net/DTD/sodipodi-0.dtd"
   xmlns="http://www.w3.org/2000/svg"
   xmlns:svg="http://www.w3.org/2000/svg">
  <defs
     id="defs28" />
  <sodipodi:namedview
     id="namedview26"
     pagecolor="#ffffff"
     bordercolor="#666666"
     borderopacity="1.0"
     inkscape:pageshadow="2"
     inkscape:pageopacity="0.0"
     inkscape:pagecheckerboard="0"
     showgrid="false"
     inkscape:zoom="5.578125"
     inkscape:cx="53.243697"
     inkscape:cy="24.739496"
     inkscape:window-width="1920"
     inkscape:window-height="1012"
     inkscape:window-x="0"
     inkscape:window-y="0"
     inkscape:window-maximized="1"
     inkscape:current-layer="svg24" />
  <circle
     cx="32"
     cy="33"
     r="28"
     style="opacity:0.2"
     id="circle2" />
  <circle
     style="fill:#35bf5c;fill-opacity:1"
     cx="32"
     cy="32"
     id="circle4"
     r="28" />
  <path
     id="circle4-35"
     style="fill:#550044;fill-opacity:1"
     d="M 31.925781 4.1347656 A 28 28 0 0 0 29.753906 4.2910156 A 28 28 0 0 0 29.205078 9.4902344 A 28 28 0 0 0 57.205078 37.490234 A 28 28 0 0 0 59.376953 37.333984 A 28 28 0 0 0 59.925781 32.134766 A 28 28 0 0 0 31.925781 4.1347656 z " />
  <path
     style="opacity:0.1;fill:#ffffff"
     d="M 32 4 A 28 28 0 0 0 4 32 A 28 28 0 0 0 4.0175781 32.492188 A 28 28 0 0 1 32 5 A 28 28 0 0 1 59.974609 32.492188 A 28 28 0 0 0 60 32 A 28 28 0 0 0 32 4 z"
     id="path22" />
  <g
     id="g915"
     style="fill:#ffffff"
     transform="matrix(0.11573223,0,0,0.11573223,17.36114,40.072871)">
    <path
       id="rect4138"
       d="M 0,-192 V 64 h 72 v -184 h 92 v -72 z"
       style="fill:#ffffff;fill-opacity:1;stroke:none;stroke-width:12;stroke-miterlimit:4;stroke-dasharray:none;stroke-opacity:1" />
    <path
       id="rect4140"
       d="m 91.999996,-100 8e-6,164 H 164 v -164 z"
       style="fill:#ffffff;fill-opacity:1;stroke:none;stroke-width:12;stroke-miterlimit:4;stroke-dasharray:none;stroke-opacity:1" />
    <path
       id="rect4142"
       d="M 184,-192 V 64 h 72 v -256 z"
       style="fill:#ffffff;fill-opacity:1;stroke:none;stroke-width:12;stroke-miterlimit:4;stroke-dasharray:none;stroke-opacity:1;paint-order:markers fill stroke" />
  </g>
</svg>
