<?xml version="1.0" encoding="UTF-8" standalone="no"?>
<!-- Created with Inkscape (http://www.inkscape.org/) -->

<svg
   version="1.2"
   width="345.45459"
   height="419.49911"
   id="svg2"
   inkscape:version="1.2 (dc2aedaf03, 2022-05-15)"
   sodipodi:docname="logo_manjaro_rounded_R_white_vertical_2022.svg"
   xmlns:inkscape="http://www.inkscape.org/namespaces/inkscape"
   xmlns:sodipodi="http://sodipodi.sourceforge.net/DTD/sodipodi-0.dtd"
   xmlns="http://www.w3.org/2000/svg"
   xmlns:svg="http://www.w3.org/2000/svg"
   xmlns:rdf="http://www.w3.org/1999/02/22-rdf-syntax-ns#"
   xmlns:cc="http://creativecommons.org/ns#"
   xmlns:dc="http://purl.org/dc/elements/1.1/">
  <sodipodi:namedview
     pagecolor="#585858"
     bordercolor="#424242"
     borderopacity="1"
     objecttolerance="10"
     gridtolerance="10"
     guidetolerance="10"
     inkscape:pageopacity="0"
     inkscape:pageshadow="2"
     inkscape:window-width="1914"
     inkscape:window-height="1047"
     id="namedview15"
     showgrid="false"
     inkscape:showpageshadow="false"
     fit-margin-top="0"
     fit-margin-left="0"
     fit-margin-right="0"
     fit-margin-bottom="0"
     inkscape:zoom="3.0730397"
     inkscape:cx="219.16411"
     inkscape:cy="250.24083"
     inkscape:window-x="1923"
     inkscape:window-y="3"
     inkscape:window-maximized="1"
     inkscape:current-layer="svg2"
     inkscape:pagecheckerboard="0"
     showguides="true"
     inkscape:guide-bbox="true"
     inkscape:deskcolor="#585858">
    <sodipodi:guide
       position="-31.223499,346.77181"
       orientation="0,-1"
       id="guide831"
       inkscape:locked="false" />
    <sodipodi:guide
       position="200.00003,292.2264"
       orientation="0,-1"
       id="guide833"
       inkscape:locked="false" />
    <sodipodi:guide
       position="200.00003,274.04457"
       orientation="0,-1"
       id="guide835"
       inkscape:locked="false" />
    <inkscape:grid
       type="xygrid"
       id="grid837"
       originx="72.727301"
       originy="72.727309" />
    <sodipodi:guide
       position="218.18187,146.77179"
       orientation="0,-1"
       id="guide669"
       inkscape:locked="false" />
    <sodipodi:guide
       position="72.727352,274.04457"
       orientation="1,0"
       id="guide697"
       inkscape:locked="false" />
    <sodipodi:guide
       position="272.72729,274.04458"
       orientation="1,0"
       id="guide699"
       inkscape:locked="false" />
    <sodipodi:guide
       position="290.90911,328.59005"
       orientation="0,-1"
       id="guide766"
       inkscape:locked="false" />
    <sodipodi:guide
       position="127.2728,292.2264"
       orientation="1,0"
       id="guide1876"
       inkscape:locked="false" />
    <sodipodi:guide
       position="145.4546,274.04457"
       orientation="1,0"
       id="guide1878"
       inkscape:locked="false" />
    <sodipodi:guide
       position="200.00003,263.30198"
       orientation="1,0"
       id="guide2088"
       inkscape:locked="false" />
    <sodipodi:guide
       position="218.18187,346.77183"
       orientation="1,0"
       id="guide2090"
       inkscape:locked="false" />
    <sodipodi:guide
       position="145.4546,128.58996"
       orientation="0,-1"
       id="guide3038"
       inkscape:locked="false" />
    <sodipodi:guide
       position="54.545532,274.04457"
       orientation="1,0"
       id="guide3045"
       inkscape:locked="false" />
    <sodipodi:guide
       position="290.90912,274.04457"
       orientation="1,0"
       id="guide3047"
       inkscape:locked="false" />
    <sodipodi:guide
       position="175.39059,72.727309"
       orientation="0,-1"
       id="guide3051"
       inkscape:locked="false" />
  </sodipodi:namedview>
  <defs
     id="defs4" />
  <metadata
     id="metadata7">
    <rdf:RDF>
      <cc:Work
         rdf:about="">
        <dc:format>image/svg+xml</dc:format>
        <dc:type
           rdf:resource="http://purl.org/dc/dcmitype/StillImage" />
      </cc:Work>
    </rdf:RDF>
  </metadata>
  <g
     aria-label="®"
     id="text594"
     style="font-size:140.705px;line-height:1.25;letter-spacing:0px;word-spacing:0px;fill:#4f4f4f;stroke-width:3.51762"
     transform="matrix(0.31550702,0,0,0.31550702,-31.969981,284.79761)"
     inkscape:label="Manjaro Logo vertical">
    <path
       id="rect1340-7"
       style="fill:#35bfa4;fill-rule:evenodd;stroke-width:9.09092;stroke-linecap:round;stroke-linejoin:round;paint-order:stroke fill markers"
       d="m 90.909101,72.727291 c -10.0727,0 -18.1818,8.10908 -18.1818,18.18184 V 254.5455 c 0,10.07275 8.1091,18.18183 18.1818,18.18183 H 127.2728 V 127.27272 h 72.72723 V 72.727291 Z m 127.272769,0 V 272.72733 h 36.36367 c 10.07267,0 18.18175,-8.10908 18.18175,-18.18183 V 90.909131 c 0,-10.07276 -8.10908,-18.18184 -18.18175,-18.18184 z M 145.4546,145.45455 v 127.27278 h 54.54543 V 145.45455 Z"
       transform="matrix(3.1695016,0,0,3.1695016,101.32891,-902.66648)"
       inkscape:label="M" />
    <path
       id="path849"
       style="font-style:normal;font-variant:normal;font-weight:bold;font-stretch:normal;font-size:193px;line-height:125%;font-family:Comfortaa;-inkscape-font-specification:'Comfortaa Bold';letter-spacing:0px;word-spacing:0px;fill:#ffffff;fill-opacity:1;stroke:none;stroke-width:0.309871"
       d="m 186.48726,290.67477 c -0.99287,4e-5 -1.83987,0.35046 -2.5407,1.05127 -0.70086,0.70088 -1.05128,1.54788 -1.05127,2.54069 -10e-6,0.9929 0.35041,1.83991 1.05127,2.54071 0.70083,0.70088 1.54783,1.0513 2.5407,1.05127 0.99285,3e-5 1.83985,-0.35039 2.54071,-1.05127 0.70082,-0.7008 1.05125,-1.54781 1.05126,-2.54071 -1e-5,-0.99281 -0.35044,-1.83981 -1.05126,-2.54069 -0.70086,-0.70081 -1.54786,-1.05123 -2.54071,-1.05127 z m 0,9.40327 c -0.83713,3e-5 -1.55714,0.30194 -2.16063,0.9054 -0.58404,0.58407 -0.87636,1.30408 -0.87635,2.16063 v 29.49409 c -1e-5,1.10966 -0.21385,2.15074 -0.64214,3.12413 -0.42829,0.97339 -1.01234,1.82039 -1.7521,2.5407 -0.72032,0.73977 -1.56732,1.31422 -2.54071,1.72306 -0.9734,0.42829 -2.01507,0.64213 -3.12474,0.64214 -0.87605,-10e-6 -1.60625,0.28272 -2.19028,0.8473 -0.56457,0.58403 -0.84671,1.31361 -0.84671,2.18967 0,0.87605 0.28214,1.60625 0.84671,2.19029 0.58403,0.58402 1.31423,0.87635 2.19028,0.87636 1.92732,-1e-5 3.74771,-0.37979 5.46088,-1.13902 1.71316,-0.7398 3.21188,-1.75212 4.49677,-3.03698 1.28487,-1.28489 2.29719,-2.78422 3.03698,-4.49738 0.75923,-1.71317 1.13901,-3.53296 1.13903,-5.46027 v -29.49409 c -2e-5,-0.85655 -0.30192,-1.57656 -0.90541,-2.16063 -0.58405,-0.60346 -1.29448,-0.90537 -2.13158,-0.9054 z m -128.904744,0.33347 c -0.837125,4e-5 -1.557131,0.30194 -2.160633,0.90541 -0.584039,0.58407 -0.876351,1.29449 -0.876351,2.13157 v 26.60297 c 0,0.85658 0.292312,1.58617 0.876351,2.18967 0.603502,0.58403 1.333692,0.87636 2.190291,0.87636 0.837106,0 1.547534,-0.29233 2.131572,-0.87636 0.603493,-0.6035 0.905403,-1.33309 0.905403,-2.18967 v -16.61627 c 0,-0.9539 0.174905,-1.84941 0.525339,-2.68656 0.36987,-0.83709 0.866456,-1.56668 1.489441,-2.18967 0.64242,-0.64241 1.382198,-1.139 2.219333,-1.48944 0.837097,-0.36987 1.732623,-0.55496 2.68656,-0.55499 0.953898,3e-5 1.849425,0.18512 2.686559,0.55499 0.837097,0.36991 1.567297,0.86649 2.190282,1.48944 0.622956,0.62299 1.118927,1.35258 1.488835,2.18967 0.36987,0.83715 0.554968,1.73266 0.554987,2.68656 v 16.61627 c -1.9e-5,0.85658 0.292303,1.58617 0.876361,2.18967 0.603473,0.58403 1.333067,0.87636 2.189675,0.87636 0.837087,0 1.548121,-0.29233 2.132179,-0.87636 0.603473,-0.6035 0.904777,-1.33309 0.904796,-2.18967 v -16.61627 c -1.9e-5,-0.9539 0.175492,-1.84941 0.525946,-2.68656 0.36985,-0.83709 0.866436,-1.56668 1.489441,-2.18967 0.642401,-0.62295 1.382178,-1.11953 2.219332,-1.48944 0.837078,-0.36987 1.732604,-0.55496 2.68656,-0.55499 0.973353,3e-5 1.878457,0.18512 2.715611,0.55499 0.856551,0.36991 1.596328,0.87608 2.219333,1.51849 0.622928,0.62298 1.10932,1.35319 1.459784,2.19028 0.36985,0.83714 0.554948,1.72247 0.554987,2.6569 v 16.61627 c -3.9e-5,0.85658 0.292283,1.58617 0.87636,2.18967 0.583991,0.58403 1.303997,0.87636 2.160624,0.87636 0.837068,0 1.547496,-0.29233 2.131573,-0.87636 0.603453,-0.6035 0.905363,-1.33309 0.905413,-2.18967 v -16.61627 c -5e-5,-1.77154 -0.35047,-3.44578 -1.051266,-5.02269 -0.681425,-1.59634 -1.615879,-2.97826 -2.803371,-4.14635 -1.168106,-1.18752 -2.550025,-2.12197 -4.146344,-2.80338 -1.576941,-0.70081 -3.251173,-1.05122 -5.022704,-1.05126 -3.93253,4e-5 -7.252259,1.54788 -9.958254,4.64324 -1.284898,-1.5574 -2.783628,-2.71589 -4.496768,-3.47516 -1.713188,-0.77868 -3.543168,-1.16804 -5.489931,-1.16808 -2.647642,4e-5 -5.013136,0.6913 -7.096184,2.07348 -0.194686,-0.62294 -0.554689,-1.11952 -1.080307,-1.48944 -0.525647,-0.38933 -1.129448,-0.584 -1.810815,-0.58404 z m 64.942904,0 c -4.51655,4e-5 -8.37119,1.59639 -11.5639,4.78909 -3.19273,3.19274 -4.78909,7.04739 -4.78909,11.5639 0,4.51655 1.59636,8.37119 4.78909,11.5639 3.19271,3.19272 7.04735,4.78909 11.5639,4.78909 1.94676,0 3.77674,-0.31149 5.48993,-0.93446 1.71314,-0.62297 3.29993,-1.51848 4.76004,-2.68656 v 0.58404 c -3e-5,0.83711 0.29168,1.55712 0.87574,2.16062 0.60348,0.58403 1.33368,0.87636 2.19029,0.87636 0.83708,0 1.54751,-0.29233 2.13158,-0.87636 0.60346,-0.6035 0.90537,-1.32351 0.9054,-2.16062 V 316.7645 c -3e-5,-4.51651 -1.5964,-8.37116 -4.78908,-11.5639 -3.23169,-3.1927 -7.08633,-4.78905 -11.5639,-4.78909 z m 25.05299,0 c -0.85659,4e-5 -1.58679,0.30194 -2.19028,0.90541 -0.58404,0.60353 -0.87575,1.32354 -0.87575,2.16063 v 26.57391 c 0,0.85658 0.29171,1.58617 0.87575,2.18967 0.60349,0.58403 1.33369,0.87636 2.19028,0.87636 0.83711,0 1.54754,-0.29233 2.13157,-0.87636 0.60351,-0.6035 0.90541,-1.33309 0.90542,-2.18967 v -14.39693 c -1e-5,-1.24593 0.2336,-2.42357 0.70084,-3.53326 0.48668,-1.10964 1.14859,-2.08304 1.98572,-2.92018 0.8371,-0.83709 1.80091,-1.48941 2.89112,-1.95667 1.10965,-0.48666 2.29689,-0.72986 3.56231,-0.72989 1.24592,3e-5 2.42358,0.24323 3.53327,0.72989 1.10964,0.48672 2.07346,1.14863 2.89112,1.98572 0.83709,0.81767 1.499,1.78149 1.98573,2.89113 0.48666,1.10969 0.72986,2.28733 0.72989,3.53326 v 14.39693 c -3e-5,0.85658 0.29229,1.58617 0.87635,2.18967 0.60347,0.58403 1.33367,0.87636 2.19028,0.87636 0.83709,0 1.54752,-0.29233 2.13158,-0.87636 0.60347,-0.6035 0.90538,-1.33309 0.9054,-2.18967 v -14.39693 c -2e-5,-2.10251 -0.40916,-4.07803 -1.22677,-5.9275 -0.81768,-1.86889 -1.92705,-3.48502 -3.3287,-4.8478 -1.40171,-1.38218 -3.02743,-2.47239 -4.87684,-3.27059 -1.83,-0.79815 -3.76721,-1.19709 -5.81131,-1.19713 -3.50422,4e-5 -6.55079,1.00279 -9.13999,3.00794 -1e-5,-0.79815 -0.30191,-1.499 -0.90542,-2.10253 -0.58403,-0.60347 -1.29446,-0.90537 -2.13157,-0.90541 z m 63.9328,0 c -4.51655,4e-5 -8.37119,1.59639 -11.56391,4.78909 -3.19272,3.19274 -4.78909,7.04739 -4.78909,11.5639 0,4.51655 1.59637,8.37119 4.78909,11.5639 3.19272,3.19272 7.04736,4.78909 11.56391,4.78909 1.94676,0 3.77674,-0.31149 5.48993,-0.93446 1.71314,-0.62297 3.29992,-1.51848 4.76004,-2.68656 v 0.58404 c -4e-5,0.83711 0.29229,1.55712 0.87635,2.16062 0.60347,0.58403 1.33306,0.87636 2.18968,0.87636 0.83708,0 1.54811,-0.29233 2.13218,-0.87636 0.60346,-0.6035 0.90477,-1.32351 0.90481,-2.16062 V 316.7645 c -4e-5,-4.51651 -1.59641,-8.37116 -4.78909,-11.5639 -3.23169,-3.1927 -7.08633,-4.78905 -11.5639,-4.78909 z m 25.0536,0 c -0.85659,4e-5 -1.58679,0.30194 -2.1903,0.90541 -0.58402,0.58407 -0.87635,1.29449 -0.87635,2.13157 v 26.63202 c 0,0.83711 0.29233,1.55712 0.87635,2.16062 0.60351,0.58403 1.33371,0.87636 2.1903,0.87636 0.8371,0 1.54753,-0.29233 2.13157,-0.87636 0.6035,-0.6035 0.9054,-1.32351 0.9054,-2.16062 V 316.7645 c 0,-1.42113 0.26236,-2.75453 0.78799,-4.00049 0.5451,-1.24592 1.2753,-2.32654 2.1903,-3.24155 0.93443,-0.93443 2.02463,-1.66462 3.27059,-2.19028 1.24593,-0.54507 2.57932,-0.81762 4.00048,-0.81765 1.4406,3e-5 2.77461,0.24323 4.0011,0.72989 0.48668,0.21417 0.91497,0.32139 1.28488,0.32138 0.42827,10e-6 0.82721,-0.0779 1.19713,-0.23362 0.36986,-0.15572 0.69092,-0.36956 0.9635,-0.64214 0.27252,-0.29198 0.48697,-0.62324 0.64274,-0.99316 0.17518,-0.36986 0.26264,-0.7688 0.26267,-1.19712 -3e-5,-0.83709 -0.27257,-1.51876 -0.81766,-2.04443 -0.54512,-0.5256 -1.23638,-0.93412 -2.07347,-1.22617 -0.81768,-0.31145 -1.72277,-0.5259 -2.71561,-0.64274 -0.97342,-0.11677 -1.88871,-0.17487 -2.74528,-0.17491 -1.94679,4e-5 -3.77677,0.31152 -5.48992,0.93446 -1.71318,0.623 -3.29936,1.51852 -4.75944,2.68656 v -0.58404 c 0,-0.83708 -0.3019,-1.5475 -0.9054,-2.13157 -0.58404,-0.60347 -1.29447,-0.90537 -2.13157,-0.90541 z m 37.99134,0 c -4.51653,4e-5 -8.37122,1.59639 -11.5639,4.78909 -3.19275,3.19274 -4.78909,7.04739 -4.78909,11.5639 0,4.51655 1.59634,8.37119 4.78909,11.5639 3.19268,3.19272 7.04737,4.78909 11.5639,4.78909 4.47758,0 8.33223,-1.59637 11.56391,-4.78909 3.19266,-3.15379 4.78903,-7.00841 4.78906,-11.5639 -0.0195,-2.25824 -0.42802,-4.35119 -1.22616,-6.27853 -0.77877,-1.92729 -1.96657,-3.68897 -3.5629,-5.28537 -3.23168,-3.1927 -7.08633,-4.78905 -11.56391,-4.78909 z m -152.03073,6.10302 c 1.42113,3e-5 2.75453,0.27258 4.00049,0.81765 1.24591,0.54512 2.32653,1.2849 3.24154,2.21933 0.93443,0.93449 1.66463,2.02468 2.19029,3.2706 0.54507,1.22649 0.81762,2.54073 0.81765,3.94239 -3e-5,1.4017 -0.27258,2.72552 -0.81765,3.97144 -0.52566,1.22648 -1.25586,2.3065 -2.19029,3.24094 -0.91501,0.93446 -1.99563,1.67424 -3.24154,2.21933 -1.24596,0.54511 -2.57936,0.81827 -4.00049,0.81826 -1.44064,10e-6 -2.78423,-0.27315 -4.03015,-0.81826 -1.24595,-0.54509 -2.32596,-1.27467 -3.24094,-2.18967 -0.915,-0.93445 -1.6452,-2.02465 -2.19028,-3.2706 -0.52564,-1.24592 -0.78861,-2.56974 -0.7886,-3.97144 -1e-5,-1.40166 0.26296,-2.72548 0.7886,-3.97144 0.54508,-1.24592 1.27528,-2.32654 2.19028,-3.24155 0.91498,-0.93443 1.99499,-1.67421 3.24094,-2.21933 1.24592,-0.54507 2.58951,-0.81762 4.03015,-0.81765 z m 88.98579,0 c 1.42112,3e-5 2.75512,0.27258 4.00109,0.81765 1.24591,0.54512 2.32593,1.2849 3.24094,2.21933 0.93443,0.93449 1.66463,2.02468 2.19028,3.2706 0.54508,1.22649 0.81762,2.54073 0.81766,3.94239 -4e-5,1.4017 -0.27258,2.72552 -0.81766,3.97144 -0.52565,1.22648 -1.25585,2.3065 -2.19028,3.24094 -0.91501,0.93446 -1.99503,1.67424 -3.24094,2.21933 -1.24597,0.54511 -2.57997,0.81827 -4.00109,0.81826 -1.44064,10e-6 -2.78362,-0.27315 -4.02955,-0.81826 -1.24595,-0.54509 -2.32657,-1.27467 -3.24154,-2.18967 -0.915,-0.93445 -1.6452,-2.02465 -2.19028,-3.2706 -0.52564,-1.24592 -0.78801,-2.56974 -0.788,-3.97144 -1e-5,-1.40166 0.26236,-2.72548 0.788,-3.97144 0.54508,-1.24592 1.27528,-2.32654 2.19028,-3.24155 0.91497,-0.93443 1.99559,-1.67421 3.24154,-2.21933 1.24593,-0.54507 2.58891,-0.81762 4.02955,-0.81765 z m 63.04494,0 c 1.42113,3e-5 2.75512,0.27258 4.00108,0.81765 1.24594,0.54512 2.32593,1.2849 3.24095,2.21933 0.93442,0.93449 1.66464,2.02468 2.19029,3.2706 0.54504,1.22649 0.81761,2.54073 0.81764,3.94239 -3e-5,1.4017 -0.2726,2.72552 -0.81764,3.97144 -0.52565,1.22648 -1.25587,2.3065 -2.19029,3.24094 -0.91502,0.93446 -1.99501,1.67424 -3.24095,2.21933 -1.24596,0.54511 -2.57995,0.81827 -4.00108,0.81826 -1.44063,10e-6 -2.78361,-0.27315 -4.02954,-0.81826 -1.24597,-0.54509 -2.32658,-1.27467 -3.24154,-2.18967 -0.91499,-0.93445 -1.6452,-2.02465 -2.19029,-3.2706 -0.52564,-1.24592 -0.78804,-2.56974 -0.78801,-3.97144 -3e-5,-1.40166 0.26237,-2.72548 0.78801,-3.97144 0.54509,-1.24592 1.2753,-2.32654 2.19029,-3.24155 0.91496,-0.93443 1.99557,-1.67421 3.24154,-2.21933 1.24593,-0.54507 2.58891,-0.81762 4.02954,-0.81765 z"
       transform="matrix(3.1695016,0,0,3.1695016,101.32891,-902.66648)"
       inkscape:label="manjaro" />
    <path
       d="m 1068.0536,3.576355e-4 q 9.6945,0 17.8342,4.8472420645 8.2312,4.7557847 12.987,12.9869503 4.8472,8.139709 4.8472,17.834193 0,9.877399 -4.8472,18.108564 -4.8473,8.231166 -13.0784,12.986951 -8.1397,4.664327 -17.7428,4.664327 -9.7859,0 -18.0171,-4.664327 -8.1397,-4.755785 -12.9869,-12.895493 -4.7558,-8.231166 -4.7558,-18.200022 0,-9.694484 4.7558,-17.834193 4.7558,-8.2311656 12.8955,-12.9869503 8.2311,-4.8472420645 18.1085,-4.8472420645 z M 1067.8707,63.929078 q 7.6825,0 14.1759,-3.84121 6.585,-3.841211 10.3347,-10.334686 3.8412,-6.493475 3.8412,-14.175897 0,-7.682421 -3.8412,-14.175896 -3.8412,-6.493476 -10.3347,-10.334686 -6.4934,-3.841211 -14.1759,-3.841211 -7.6824,0 -14.1759,3.841211 -6.4934,3.84121 -10.3346,10.334686 -3.8413,6.493475 -3.8413,14.175896 0,7.682422 3.7498,14.175897 3.8412,6.493475 10.3347,10.334686 6.4935,3.84121 14.2673,3.84121 z m 14.999,-13.078407 q 0.7317,1.280403 0.7317,2.377892 0,1.280404 -0.9146,2.10352 -0.9145,0.823117 -2.4693,0.823117 -1.0975,0 -2.0121,-0.457287 -0.9146,-0.457287 -1.3718,-1.188946 l -8.4141,-14.175897 h -0.8231 -5.7619 v 12.346749 q 0,1.554775 -1.006,2.560807 -0.9146,0.914574 -2.5608,0.914574 -1.6462,0 -2.6523,-0.914574 -1.006,-1.006032 -1.006,-2.560807 v -35.8513 q 0,-1.554776 1.0975,-2.46935 1.0975,-1.006031 2.8352,-1.006031 h 9.0543 q 6.5849,0 10.7919,3.749753 4.2985,3.749753 4.2985,9.603027 0,3.84121 -1.9206,6.950762 -1.9206,3.018094 -5.213,4.847242 z m -21.0352,-16.919619 h 6.3106 q 3.2925,0 5.2131,-1.920605 2.012,-2.012063 2.012,-5.304529 0,-3.292467 -2.012,-5.121615 -1.9206,-1.829148 -5.2131,-1.829148 h -6.3106 z"
       style="font-size:91.4574px;line-height:1.25;letter-spacing:0px;word-spacing:0px;fill:#ffffff;stroke-width:3.51762;font-weight:bold;font-family:Comfortaa;-inkscape-font-specification:'Comfortaa Bold';baseline-shift:super"
       id="path296"
       inkscape:label="R" />
  </g>
</svg>
